<?xml version="1.0"?><svg xmlns="http://www.w3.org/2000/svg" xmlns:xlink="http://www.w3.org/1999/xlink" viewBox="132.65 105.06 260.88 229.44" preserveAspectRatio="xMidYMid" width="100%" height="100%"><clipPath id="2869"><rect x="0.5" y="0.5" width="522.32" height="768.92" /></clipPath><g id="drawing"><rect x="132.65" y="105.06" width="100%" height="100%" fill="rgb(255, 255, 255)" /><g id="page" clip-path="url(#2869)"><g><text xml:space="preserve" text-anchor="start" text-rendering="geometricPrecision"><tspan x="174.06" y="144.9" font-family="Arial" font-size="10" fill="rgb(0, 0, 0)">C</tspan></text></g><g><text xml:space="preserve" text-anchor="start" text-rendering="geometricPrecision"><tspan x="208.56" y="144.9" font-family="Arial" font-size="10" fill="rgb(0, 0, 0)">C</tspan></text></g><g id="Solid"><path d="M182.9 141.5 L182.9 141.5 L182.9 141 L182.9 140.5 L207.1 140.5 L207.1 141 L207.1 141.5 Z" stroke="rgb(0, 0, 0)" stroke-width="0" fill-rule="evenodd" stroke-linejoin="miter" fill="rgb(0, 0, 0)" shape-rendering="geometricPrecision" /></g><g><text xml:space="preserve" text-anchor="end" text-rendering="geometricPrecision"><tspan x="151.26" y="144.9" font-family="Arial" font-size="10" fill="rgb(0, 0, 0)">H</tspan><tspan font-family="Arial" dy="2.26" font-size="7.5" fill="rgb(0, 0, 0)">2</tspan><tspan font-family="Arial" dy="-2.26" font-size="10" fill="rgb(0, 0, 0)">N</tspan></text></g><g><text xml:space="preserve" text-anchor="start" text-rendering="geometricPrecision"><tspan x="231.51" y="162.15" font-family="Arial" font-size="10" fill="rgb(0, 0, 0)">O</tspan></text></g><g><text xml:space="preserve" text-anchor="start" text-rendering="geometricPrecision"><tspan x="227.76" y="126.9" font-family="Arial" font-size="10" fill="rgb(0, 0, 0)">OH</tspan></text></g><g id="Solid"><path d="M216.79 137.41 L216.79 137.41 L216.45 137.04 L216.11 136.68 L226.89 126.72 L227.23 127.09 L227.57 127.46 Z" stroke="rgb(0, 0, 0)" stroke-width="0" fill-rule="evenodd" stroke-linejoin="miter" fill="rgb(0, 0, 0)" shape-rendering="geometricPrecision" /></g><g id="Solid"><line x1="217.91" y1="143.38" x2="231.3" y2="153.31" stroke="rgb(0, 0, 0)" stroke-width="1" shape-rendering="auto" /><path d="M216.4 145.41 L216.4 145.41 L215.81 146.21 L229.19 156.15 L229.79 155.34 Z" stroke="rgb(0, 0, 0)" stroke-width="0" fill-rule="evenodd" stroke-linejoin="miter" fill="rgb(0, 0, 0)" shape-rendering="geometricPrecision" /><path d="M218.21 142.98 L218.21 142.98 L217.61 143.78 L231 153.71 L231.59 152.91 Z" stroke="rgb(0, 0, 0)" stroke-width="0" fill-rule="evenodd" stroke-linejoin="miter" fill="rgb(0, 0, 0)" shape-rendering="geometricPrecision" /></g><g id="Solid"><path d="M172.6 140.5 L172.6 140.5 L172.6 141 L172.6 141.5 L152.5 141.5 L152.5 141 L152.5 140.5 Z" stroke="rgb(0, 0, 0)" stroke-width="0" fill-rule="evenodd" stroke-linejoin="miter" fill="rgb(0, 0, 0)" shape-rendering="geometricPrecision" /></g><g id="Solid"><path d="M177.16 147.1 L177.16 147.1 L177.66 147.1 L178.16 147.1 L178.16 171 L177.66 171 L177.16 171 Z" stroke="rgb(0, 0, 0)" stroke-width="0" fill-rule="evenodd" stroke-linejoin="miter" fill="rgb(0, 0, 0)" shape-rendering="geometricPrecision" /></g><g><text xml:space="preserve" text-anchor="start" text-rendering="geometricPrecision"><tspan x="173.16" y="180" font-family="Times New Roman" font-weight="bold" font-size="12" fill="rgb(0, 0, 0)">R</tspan><tspan font-family="Times New Roman" font-weight="bold" dy="2.67" font-size="9" fill="rgb(0, 0, 0)">1</tspan></text></g><g><text xml:space="preserve" text-anchor="start" text-rendering="geometricPrecision"><tspan x="324.81" y="143.4" font-family="Arial" font-size="10" fill="rgb(0, 0, 0)">C</tspan></text></g><g><text xml:space="preserve" text-anchor="start" text-rendering="geometricPrecision"><tspan x="359.31" y="143.4" font-family="Arial" font-size="10" fill="rgb(0, 0, 0)">C</tspan></text></g><g id="Solid"><path d="M333.7 140 L333.7 140 L333.7 139.5 L333.7 139 L357.9 139 L357.9 139.5 L357.9 140 Z" stroke="rgb(0, 0, 0)" stroke-width="0" fill-rule="evenodd" stroke-linejoin="miter" fill="rgb(0, 0, 0)" shape-rendering="geometricPrecision" /></g><g><text xml:space="preserve" text-anchor="end" text-rendering="geometricPrecision"><tspan x="302.01" y="143.4" font-family="Arial" font-size="10" fill="rgb(0, 0, 0)">H</tspan><tspan font-family="Arial" dy="2.26" font-size="7.5" fill="rgb(0, 0, 0)">2</tspan><tspan font-family="Arial" dy="-2.26" font-size="10" fill="rgb(0, 0, 0)">N</tspan></text></g><g><text xml:space="preserve" text-anchor="start" text-rendering="geometricPrecision"><tspan x="382.26" y="160.65" font-family="Arial" font-size="10" fill="rgb(0, 0, 0)">O</tspan></text></g><g><text xml:space="preserve" text-anchor="start" text-rendering="geometricPrecision"><tspan x="378.51" y="125.4" font-family="Arial" font-size="10" fill="rgb(0, 0, 0)">OH</tspan></text></g><g id="Solid"><path d="M367.61 135.84 L367.61 135.84 L367.27 135.48 L366.93 135.11 L377.59 125.27 L377.93 125.64 L378.27 126 Z" stroke="rgb(0, 0, 0)" stroke-width="0" fill-rule="evenodd" stroke-linejoin="miter" fill="rgb(0, 0, 0)" shape-rendering="geometricPrecision" /></g><g id="Solid"><line x1="368.71" y1="141.92" x2="382.09" y2="151.85" stroke="rgb(0, 0, 0)" stroke-width="1" shape-rendering="auto" /><path d="M367.2 143.94 L367.2 143.94 L366.61 144.75 L380 154.68 L380.59 153.88 Z" stroke="rgb(0, 0, 0)" stroke-width="0" fill-rule="evenodd" stroke-linejoin="miter" fill="rgb(0, 0, 0)" shape-rendering="geometricPrecision" /><path d="M369 141.52 L369 141.52 L368.41 142.32 L381.8 152.25 L382.39 151.45 Z" stroke="rgb(0, 0, 0)" stroke-width="0" fill-rule="evenodd" stroke-linejoin="miter" fill="rgb(0, 0, 0)" shape-rendering="geometricPrecision" /></g><g id="Solid"><path d="M323.4 139 L323.4 139 L323.4 139.5 L323.4 140 L303.2 140 L303.2 139.5 L303.2 139 Z" stroke="rgb(0, 0, 0)" stroke-width="0" fill-rule="evenodd" stroke-linejoin="miter" fill="rgb(0, 0, 0)" shape-rendering="geometricPrecision" /></g><g id="Solid"><path d="M327.91 145.6 L327.91 145.6 L328.41 145.6 L328.91 145.6 L328.91 169.5 L328.41 169.5 L327.91 169.5 Z" stroke="rgb(0, 0, 0)" stroke-width="0" fill-rule="evenodd" stroke-linejoin="miter" fill="rgb(0, 0, 0)" shape-rendering="geometricPrecision" /></g><g><text xml:space="preserve" text-anchor="start" text-rendering="geometricPrecision"><tspan x="323.91" y="178.5" font-family="Times New Roman" font-weight="bold" font-size="12" fill="rgb(0, 0, 0)">R</tspan><tspan font-family="Times New Roman" font-weight="bold" dy="2.67" font-size="9" fill="rgb(0, 0, 0)">2</tspan></text></g><g><text xml:space="preserve" text-anchor="start" text-rendering="geometricPrecision"><tspan x="258.66" y="144.75" font-family="Times New Roman" font-weight="bold" font-size="12" fill="rgb(0, 0, 0)">+</tspan></text></g><g id="Arrow"><line x1="261.66" y1="221" x2="261.66" y2="189.75" stroke="rgb(0, 0, 0)" stroke-width="1" shape-rendering="auto" /><path d="M261.66 228.75 L264.16 218.75 C262.75 220.44 260.57 220.44 259.16 218.75 Z" stroke="rgb(0, 0, 0)" stroke-width="0" fill-rule="evenodd" stroke-linejoin="miter" stroke-miterlimit="11.5587500919148" fill="rgb(0, 0, 0)" shape-rendering="geometricPrecision" /></g><g><text xml:space="preserve" text-anchor="start" text-rendering="geometricPrecision"><tspan x="199.56" y="293.4" font-family="Arial" font-size="10" fill="rgb(0, 0, 0)">C</tspan></text></g><g><text xml:space="preserve" text-anchor="start" text-rendering="geometricPrecision"><tspan x="234.06" y="293.4" font-family="Arial" font-size="10" fill="rgb(0, 0, 0)">C</tspan></text></g><g id="Solid"><path d="M208.4 290 L208.4 290 L208.4 289.5 L208.4 289 L232.6 289 L232.6 289.5 L232.6 290 Z" stroke="rgb(0, 0, 0)" stroke-width="0" fill-rule="evenodd" stroke-linejoin="miter" fill="rgb(0, 0, 0)" shape-rendering="geometricPrecision" /></g><g><text xml:space="preserve" text-anchor="end" text-rendering="geometricPrecision"><tspan x="176.76" y="293.4" font-family="Arial" font-size="10" fill="rgb(0, 0, 0)">H</tspan><tspan font-family="Arial" dy="2.26" font-size="7.5" fill="rgb(0, 0, 0)">2</tspan><tspan font-family="Arial" dy="-2.26" font-size="10" fill="rgb(0, 0, 0)">N</tspan></text></g><g><text xml:space="preserve" text-anchor="start" text-rendering="geometricPrecision"><tspan x="233.76" y="323.4" font-family="Arial" font-size="10" fill="rgb(0, 0, 0)">O</tspan></text></g><g id="Solid"><line x1="239.46" y1="295.6" x2="239.46" y2="314.2" stroke="rgb(0, 0, 0)" stroke-width="1" shape-rendering="auto" /><path d="M236.36 295.6 L236.36 295.6 L235.36 295.6 L235.36 314.2 L236.36 314.2 Z" stroke="rgb(0, 0, 0)" stroke-width="0" fill-rule="evenodd" stroke-linejoin="miter" fill="rgb(0, 0, 0)" shape-rendering="geometricPrecision" /><path d="M239.96 295.6 L239.96 295.6 L238.96 295.6 L238.96 314.2 L239.96 314.2 Z" stroke="rgb(0, 0, 0)" stroke-width="0" fill-rule="evenodd" stroke-linejoin="miter" fill="rgb(0, 0, 0)" shape-rendering="geometricPrecision" /></g><g id="Solid"><path d="M198.1 289 L198.1 289 L198.1 289.5 L198.1 290 L178 290 L178 289.5 L178 289 Z" stroke="rgb(0, 0, 0)" stroke-width="0" fill-rule="evenodd" stroke-linejoin="miter" fill="rgb(0, 0, 0)" shape-rendering="geometricPrecision" /></g><g id="Solid"><path d="M202.66 295.6 L202.66 295.6 L203.16 295.6 L203.66 295.6 L203.66 319.5 L203.16 319.5 L202.66 319.5 Z" stroke="rgb(0, 0, 0)" stroke-width="0" fill-rule="evenodd" stroke-linejoin="miter" fill="rgb(0, 0, 0)" shape-rendering="geometricPrecision" /></g><g><text xml:space="preserve" text-anchor="start" text-rendering="geometricPrecision"><tspan x="198.66" y="328.5" font-family="Times New Roman" font-weight="bold" font-size="12" fill="rgb(0, 0, 0)">R</tspan><tspan font-family="Times New Roman" font-weight="bold" dy="2.67" font-size="9" fill="rgb(0, 0, 0)">1</tspan></text></g><g><text xml:space="preserve" text-anchor="start" text-rendering="geometricPrecision"><tspan x="299.31" y="293.4" font-family="Arial" font-size="10" fill="rgb(0, 0, 0)">C</tspan></text></g><g><text xml:space="preserve" text-anchor="start" text-rendering="geometricPrecision"><tspan x="333.81" y="293.4" font-family="Arial" font-size="10" fill="rgb(0, 0, 0)">C</tspan></text></g><g id="Solid"><path d="M308.2 290 L308.2 290 L308.2 289.5 L308.2 289 L332.4 289 L332.4 289.5 L332.4 290 Z" stroke="rgb(0, 0, 0)" stroke-width="0" fill-rule="evenodd" stroke-linejoin="miter" fill="rgb(0, 0, 0)" shape-rendering="geometricPrecision" /></g><g><text xml:space="preserve" text-anchor="start" text-rendering="geometricPrecision"><tspan x="269.31" y="293.4" font-family="Arial" font-size="10" fill="rgb(0, 0, 0)">N</tspan></text></g><g><text xml:space="preserve" text-anchor="start" text-rendering="geometricPrecision"><tspan x="356.76" y="310.65" font-family="Arial" font-size="10" fill="rgb(0, 0, 0)">O</tspan></text></g><g id="Solid"><path d="M342.11 285.84 L342.11 285.84 L341.77 285.48 L341.43 285.11 L352.09 275.27 L352.43 275.64 L352.77 276 Z" stroke="rgb(0, 0, 0)" stroke-width="0" fill-rule="evenodd" stroke-linejoin="miter" fill="rgb(0, 0, 0)" shape-rendering="geometricPrecision" /></g><g><text xml:space="preserve" text-anchor="start" text-rendering="geometricPrecision"><tspan x="353.01" y="275.4" font-family="Arial" font-size="10" fill="rgb(0, 0, 0)">OH</tspan></text></g><g id="Solid"><line x1="343.21" y1="291.92" x2="356.59" y2="301.85" stroke="rgb(0, 0, 0)" stroke-width="1" shape-rendering="auto" /><path d="M341.7 293.94 L341.7 293.94 L341.11 294.75 L354.5 304.68 L355.09 303.88 Z" stroke="rgb(0, 0, 0)" stroke-width="0" fill-rule="evenodd" stroke-linejoin="miter" fill="rgb(0, 0, 0)" shape-rendering="geometricPrecision" /><path d="M343.5 291.52 L343.5 291.52 L342.91 292.32 L356.3 302.25 L356.89 301.45 Z" stroke="rgb(0, 0, 0)" stroke-width="0" fill-rule="evenodd" stroke-linejoin="miter" fill="rgb(0, 0, 0)" shape-rendering="geometricPrecision" /></g><g id="Solid"><path d="M297.9 289 L297.9 289 L297.9 289.5 L297.9 290 L277.8 290 L277.8 289.5 L277.8 289 Z" stroke="rgb(0, 0, 0)" stroke-width="0" fill-rule="evenodd" stroke-linejoin="miter" fill="rgb(0, 0, 0)" shape-rendering="geometricPrecision" /></g><g id="Solid"><path d="M302.41 295.6 L302.41 295.6 L302.91 295.6 L303.41 295.6 L303.41 319.5 L302.91 319.5 L302.41 319.5 Z" stroke="rgb(0, 0, 0)" stroke-width="0" fill-rule="evenodd" stroke-linejoin="miter" fill="rgb(0, 0, 0)" shape-rendering="geometricPrecision" /></g><g><text xml:space="preserve" text-anchor="start" text-rendering="geometricPrecision"><tspan x="298.41" y="328.5" font-family="Times New Roman" font-weight="bold" font-size="12" fill="rgb(0, 0, 0)">R</tspan><tspan font-family="Times New Roman" font-weight="bold" dy="2.67" font-size="9" fill="rgb(0, 0, 0)">2</tspan></text></g><g id="Solid"><path d="M242.9 290 L242.9 290 L242.9 289.5 L242.9 289 L268.1 289 L268.1 289.5 L268.1 290 Z" stroke="rgb(0, 0, 0)" stroke-width="0" fill-rule="evenodd" stroke-linejoin="miter" fill="rgb(0, 0, 0)" shape-rendering="geometricPrecision" /></g><g id="Rectangle"><path d="M286.05 252.75 L286.05 252.75 L290.05 252.75 L290.05 333.25 L227.75 333.25 L227.75 329.25 L286.05 329.25 " stroke="rgb(192, 192, 192)" stroke-width="0" fill-rule="evenodd" stroke-linejoin="bevel" fill="rgb(192, 192, 192)" shape-rendering="geometricPrecision" /><path d="M223.73 248.75 L223.73 248.75 L286.03 248.75 L286.03 329.25 L223.73 329.25 Z" stroke="rgb(0, 0, 0)" stroke-width="1" fill-rule="evenodd" stroke-linejoin="miter" fill="none" shape-rendering="geometricPrecision" /></g><g id="Rectangle"><path d="M191.55 165.95 L191.55 165.95 L195.55 165.95 L195.55 192.25 L169.95 192.25 L169.95 188.25 L191.55 188.25 " stroke="rgb(192, 192, 192)" stroke-width="0" fill-rule="evenodd" stroke-linejoin="bevel" fill="rgb(192, 192, 192)" shape-rendering="geometricPrecision" /><path d="M165.99 161.95 L165.99 161.95 L191.53 161.95 L191.53 188.25 L165.99 188.25 Z" stroke="rgb(0, 0, 0)" stroke-width="1" fill-rule="evenodd" stroke-linejoin="miter" fill="none" shape-rendering="geometricPrecision" /></g><g id="Rectangle"><path d="M343.05 165.15 L343.05 165.15 L347.05 165.15 L347.05 191.45 L321.45 191.45 L321.45 187.45 L343.05 187.45 " stroke="rgb(192, 192, 192)" stroke-width="0" fill-rule="evenodd" stroke-linejoin="bevel" fill="rgb(192, 192, 192)" shape-rendering="geometricPrecision" /><path d="M317.49 161.2 L317.49 161.2 L343.03 161.2 L343.03 187.5 L317.49 187.5 Z" stroke="rgb(0, 0, 0)" stroke-width="1" fill-rule="evenodd" stroke-linejoin="miter" fill="none" shape-rendering="geometricPrecision" /></g><g><text xml:space="preserve" text-anchor="start" text-rendering="geometricPrecision"><tspan x="174.06" y="114.9" font-family="Arial" font-size="10" fill="rgb(0, 0, 0)">H</tspan></text></g><g id="Solid"><path d="M177.16 116.9 L177.16 116.9 L177.66 116.9 L178.16 116.9 L178.16 135.7 L177.66 135.7 L177.16 135.7 Z" stroke="rgb(0, 0, 0)" stroke-width="0" fill-rule="evenodd" stroke-linejoin="miter" fill="rgb(0, 0, 0)" shape-rendering="geometricPrecision" /></g><g><text xml:space="preserve" text-anchor="start" text-rendering="geometricPrecision"><tspan x="324.81" y="113.4" font-family="Arial" font-size="10" fill="rgb(0, 0, 0)">H</tspan></text></g><g id="Solid"><path d="M327.91 115.4 L327.91 115.4 L328.41 115.4 L328.91 115.4 L328.91 134.2 L328.41 134.2 L327.91 134.2 Z" stroke="rgb(0, 0, 0)" stroke-width="0" fill-rule="evenodd" stroke-linejoin="miter" fill="rgb(0, 0, 0)" shape-rendering="geometricPrecision" /></g><g><text xml:space="preserve" text-anchor="start" text-rendering="geometricPrecision"><tspan x="269.31" y="263.4" font-family="Arial" font-size="10" fill="rgb(0, 0, 0)">H</tspan></text></g><g id="Solid"><path d="M272.41 265.4 L272.41 265.4 L272.91 265.4 L273.41 265.4 L273.41 284.3 L272.91 284.3 L272.41 284.3 Z" stroke="rgb(0, 0, 0)" stroke-width="0" fill-rule="evenodd" stroke-linejoin="miter" fill="rgb(0, 0, 0)" shape-rendering="geometricPrecision" /></g><g><text xml:space="preserve" text-anchor="start" text-rendering="geometricPrecision"><tspan x="199.56" y="263.4" font-family="Arial" font-size="10" fill="rgb(0, 0, 0)">H</tspan></text></g><g><text xml:space="preserve" text-anchor="start" text-rendering="geometricPrecision"><tspan x="299.31" y="263.4" font-family="Arial" font-size="10" fill="rgb(0, 0, 0)">H</tspan></text></g><g id="Solid"><path d="M202.66 265.4 L202.66 265.4 L203.16 265.4 L203.66 265.4 L203.66 284.2 L203.16 284.2 L202.66 284.2 Z" stroke="rgb(0, 0, 0)" stroke-width="0" fill-rule="evenodd" stroke-linejoin="miter" fill="rgb(0, 0, 0)" shape-rendering="geometricPrecision" /></g><g id="Solid"><path d="M302.41 265.4 L302.41 265.4 L302.91 265.4 L303.41 265.4 L303.41 284.2 L302.91 284.2 L302.41 284.2 Z" stroke="rgb(0, 0, 0)" stroke-width="0" fill-rule="evenodd" stroke-linejoin="miter" fill="rgb(0, 0, 0)" shape-rendering="geometricPrecision" /></g></g></g></svg>